Coordinates
version=1
nRows=5
nColumns=63
inDegrees=yes

Units are S.I. units (second, meters, Newtons, ...)
If the header above contains a line with 'inDegrees', this indicates whether rotational values are in degrees (yes) or radians (no).

endheader
time	pelvis_tilt	pelvis_list	pelvis_rotation	pelvis_tx	pelvis_ty	pelvis_tz	hip_flexion_r	hip_adduction_r	hip_rotation_r	knee_angle_r	knee_angle_r_beta	ankle_angle_r	subtalar_angle_r	mtp_angle_r	hip_flexion_l	hip_adduction_l	hip_rotation_l	knee_angle_l	knee_angle_l_beta	ankle_angle_l	subtalar_angle_l	mtp_angle_l	L5_S1_Flex_Ext	L5_S1_Lat_Bending	L5_S1_axial_rotation	L4_L5_Flex_Ext	L4_L5_Lat_Bending	L4_L5_axial_rotation	L3_L4_Flex_Ext	L3_L4_Lat_Bending	L3_L4_axial_rotation	L2_L3_Flex_Ext	L2_L3_Lat_Bending	L2_L3_axial_rotation	L1_L2_Flex_Ext	L1_L2_Lat_Bending	L1_L2_axial_rotation	L1_T12_Flex_Ext	L1_T12_Lat_Bending	L1_T12_axial_rotation	Abs_r3	Abs_r2	Abs_r1	Abs_t1	Abs_t2	neck_flexion	neck_bending	neck_rotation	arm_flex_r	arm_add_r	arm_rot_r	elbow_flex_r	pro_sup_r	wrist_flex_r	wrist_dev_r	arm_flex_l	arm_add_l	arm_rot_l	elbow_flex_l	pro_sup_l	wrist_flex_l	wrist_dev_l
      3.18644068	      3.81116956	     -3.22506438	    121.60761307	      0.30441046	      0.56107771	      0.96639597	      8.09958592	     -3.17919041	    -18.45782437	     14.99255149	      0.26166939	     29.39571795	      4.43175306	      0.00000000	      9.93808572	      2.84626427	     -1.90764050	     13.10123413	      0.22865967	     25.52363833	     10.66589110	      0.00000000	      0.15058687	     -0.14880603	     -2.15353982	      0.27965488	     -0.19791201	     -2.28813606	      0.24739917	     -0.36180697	     -2.28813606	      0.17210573	     -0.36180697	     -1.88434734	      0.13983497	     -0.30344525	     -1.74975110	      0.08604534	     -0.23050053	     -1.61515486	      1.07562695	     -1.68332353	    -11.97734240	      0.00000000	      0.00000000	     13.01319732	      3.87518664	      7.51639073	     11.05684374	    -15.62168355	     63.11208393	     55.68425658	     85.99173667	      6.45552120	     11.73276454	     15.16105718	    -18.51566627	     63.05482797	     65.19182712	     58.14776476	     -1.27806322	     26.07586856
      3.20338983	      4.09855847	     -3.22953842	    122.39294750	      0.30257612	      0.56121324	      0.96590036	      7.83642416	     -3.05201945	    -19.87798812	     14.53562961	      0.25369460	     29.41429518	      5.44823388	      0.00000000	     10.06325678	      2.77282809	     -0.88356645	     13.08991973	      0.22846220	     25.46174442	     10.28857313	      0.00000000	      0.16137764	     -0.12350601	     -2.35397178	      0.29969442	     -0.16426299	     -2.50109502	      0.26512733	     -0.30029251	     -2.50109502	      0.18443850	     -0.30029251	     -2.05972531	      0.14985528	     -0.25185345	     -1.91260207	      0.09221118	     -0.19131081	     -1.76547883	      1.15270435	     -1.39712465	    -13.09208484	      0.00000000	      0.00000000	     13.25691942	      3.67552000	      7.44385427	     11.49351842	    -15.72322323	     64.36247741	     55.56194898	     86.44094476	      6.62393623	     11.20380969	     13.83975385	    -18.22121514	     60.33207079	     65.47037754	     60.50877191	      0.34144623	     27.93707419
      3.22033898	      4.27914305	     -3.17585932	    122.78763170	      0.30153433	      0.56143780	      0.96529880	      7.62811789	     -2.82511090	    -20.08307569	     14.13995713	      0.24678881	     29.29303490	      5.25514446	      0.00000000	     10.04644161	      2.61637618	     -0.79930614	     13.01285483	      0.22711716	     25.48183047	     10.76344294	      0.00000000	      0.15407031	     -0.10969711	     -2.36037015	      0.28612396	     -0.14589715	     -2.50789328	      0.25312211	     -0.26671755	     -2.50789328	      0.17608695	     -0.26671755	     -2.06532388	      0.14306969	     -0.22369434	     -1.91780075	      0.08803577	     -0.16992082	     -1.77027761	      1.10050879	     -1.24091561	    -13.12767066	      0.00000000	      0.00000000	     13.48386246	      3.42526041	      6.52392225	     11.76924507	    -15.82668463	     65.62959841	     55.48069088	     87.55949149	      5.80853327	     11.25003417	     13.94298120	    -18.00301794	     60.62569814	     65.34490679	     59.76741230	      0.25464543	     28.47834558
      3.23728814	      4.52023881	     -3.15736079	    123.61301899	      0.29990453	      0.56140380	      0.96539170	      7.36498589	     -2.79096909	    -22.12258634	     13.70136739	      0.23913397	     29.46830987	      7.02301804	      0.00000000	     10.22519390	      2.59823135	      0.47652500	     13.10688772	      0.22875835	     25.45439325	     10.21331340	      0.00000000	      0.15398524	     -0.09067354	     -2.53678933	      0.28596600	     -0.12059580	     -2.69533866	      0.25298236	     -0.22046363	     -2.69533866	      0.17598974	     -0.22046363	     -2.21969066	      0.14299070	     -0.18490147	     -2.06114133	      0.08798717	     -0.14045331	     -1.90259200	      1.09990121	     -1.02571717	    -14.10886122	      0.00000000	      0.00000000	     13.81955648	      2.77302505	      5.37869249	     13.88610397	    -15.88433529	     71.66209120	     55.23514224	     88.31082117	      0.99351274	     11.36392429	     13.10427569	    -17.57573226	     58.96932966	     64.93110425	     62.15509697	      1.55996509	     29.08246528
      3.25423729	      4.54676249	     -3.17770750	    123.82775169	      0.29932299	      0.56130659	      0.96532224	      7.23304978	     -2.81968061	    -22.70809368	     13.42169921	      0.23425284	     29.57995624	      7.65829274	      0.00000000	     10.27346729	      2.65282743	      0.94189059	     13.11750364	      0.22894363	     25.43480120	      9.95627590	      0.00000000	      0.14483237	     -0.09469693	     -2.56516549	      0.26896820	     -0.12594692	     -2.72548834	      0.23794510	     -0.23024612	     -2.72548834	      0.16552892	     -0.23024612	     -2.24451981	      0.13449134	     -0.19310598	     -2.08419696	      0.08275722	     -0.14668555	     -1.92387412	      1.03452315	     -1.07123061	    -14.26668093	      0.00000000	      0.00000000	     14.08303484	      2.36246891	      4.31679768	     16.27047998	    -15.31178432	     78.08581804	     54.25081996	     88.85847320	     -2.38502779	     11.79855578	     12.89974182	    -17.10535607	     58.27934710	     63.92981823	     65.00962077	      3.85339069	     29.25371878
